<svg width="258" height="71" viewBox="0 0 258 71" fill="none" xmlns="http://www.w3.org/2000/svg">
<path d="M60.5059 16.4952C65.4608 22.8123 67.9125 28.6529 67.861 34.0169C67.8644 39.3378 65.6689 43.7217 61.2744 47.1687C58.6377 49.2368 55.8254 50.2892 52.8375 50.326C49.9476 50.3745 47.2817 49.8037 44.8398 48.6136C45.3052 50.1119 45.5961 51.6139 45.7125 53.1197C45.8288 54.6255 45.6942 56.1507 45.3087 57.6953C44.9231 59.2399 44.2435 60.7489 43.2699 62.2225C42.2962 63.696 40.9305 65.1221 39.1727 66.5009C36.8106 68.3536 34.2865 69.4906 31.6002 69.9118C28.9569 70.388 26.2652 70.2367 23.525 69.4581C20.7848 68.6794 18.0941 67.2852 15.453 65.2754C12.8 63.3636 10.3102 60.9246 7.98352 57.9583C3.50254 52.2454 0.916762 47.3086 0.226193 43.1477C-0.464377 38.9868 0.426293 35.937 2.8982 33.9981C4.38135 32.8347 5.92483 32.2008 7.52864 32.0963C9.18739 31.9487 10.7282 32.1597 12.1511 32.7295C12.2438 34.4313 12.5616 36.5333 13.1045 39.0354C13.7455 41.5493 15.2293 44.2895 17.556 47.2558C19.7534 50.0573 21.8635 51.7294 23.8864 52.2722C25.9523 52.8699 27.7817 52.544 29.3747 51.2945C30.9678 50.045 31.7454 48.5478 31.7076 46.8029C31.713 45.1129 30.6815 42.9496 28.6134 40.3129L22.5382 32.5675C22.8409 31.7091 23.3239 30.7978 23.9874 29.8338C24.6509 28.8697 25.5868 27.9138 26.7953 26.9659C28.0587 25.9749 29.2161 25.2446 30.2673 24.7749C31.4166 24.3171 32.4657 24.0709 33.4146 24.0364L39.4898 31.7818C42.592 35.7368 45.6537 36.5295 48.6749 34.1597C50.1032 33.0395 50.7612 31.5029 50.6491 29.5501C50.5371 27.5973 49.49 25.3575 47.5081 22.8307C45.7415 20.5785 43.9158 18.8164 42.0308 17.5444C40.2007 16.2293 38.4703 15.324 36.8395 14.8286C36.7662 13.3778 36.9595 11.984 37.4194 10.6473C37.9342 9.26745 38.8508 8.06052 40.1692 7.02645C42.9157 4.87213 46.041 4.72769 49.5449 6.59313C53.1037 8.41549 56.7574 11.7162 60.5059 16.4952Z" fill="#E8FF8E"/>
<path fill-rule="evenodd" clip-rule="evenodd" d="M66.0755 50.5678C66.4007 52.1649 66.8487 53.6845 67.4195 55.1265C68.7459 58.4775 70.596 61.3399 72.9696 63.7135C75.4131 66.0174 78.3103 67.7976 81.6614 69.0542C85.0124 70.3109 88.7474 70.9392 92.8664 70.9392C96.9854 70.9392 100.72 70.3458 104.071 69.1589C107.422 67.9721 110.285 66.2268 112.658 63.9229C115.102 61.6191 116.987 58.7917 118.313 55.4407C119.64 52.0198 120.303 48.1452 120.303 43.8168C120.303 39.7676 119.64 36.0675 118.313 32.7165C116.987 29.3654 115.102 26.538 112.658 24.2342C110.285 21.8605 107.422 20.0454 104.071 18.7887C100.72 17.4623 96.9854 16.799 92.8664 16.799C88.7474 16.799 85.0124 17.4274 81.6614 18.684C78.3103 19.9406 75.4131 21.7558 72.9696 24.1294C72.6294 24.4597 72.2999 24.8006 71.9812 25.1524C73.0229 28.0944 73.5755 31.0612 73.5507 34.0422C73.5472 40.636 70.9336 46.2401 66.0755 50.5678ZM86.0596 53.6604C84.4539 51.3566 83.651 48.0754 83.651 43.8168C83.651 39.628 84.4539 36.4166 86.0596 34.1825C87.6653 31.8787 89.9342 30.7268 92.8664 30.7268C95.7985 30.7268 98.0675 31.8787 99.6732 34.1825C101.279 36.4166 102.082 39.628 102.082 43.8168C102.082 48.0055 101.279 51.2519 99.6732 53.5557C98.1373 55.8595 95.9033 57.0114 92.9711 57.0114C90.039 57.0114 87.7351 55.8944 86.0596 53.6604Z" fill="#E8FF8E"/>
<path d="M124.014 61.0695C124.485 60.144 124.914 59.1895 125.303 58.2074L125.313 58.183L125.322 58.1584C127.039 53.7303 127.821 48.911 127.821 43.8167C127.821 38.9368 127.019 34.2836 125.303 29.9496C124.996 29.1744 124.664 28.4162 124.306 27.676C124.441 27.1363 124.623 26.6376 124.852 26.1799C125.48 24.9931 126.353 23.9459 127.47 23.0383C128.587 22.1307 129.948 21.3279 131.554 20.6298C133.23 19.8618 135.01 19.1986 136.895 18.6401C138.78 18.0816 140.734 17.6627 142.759 17.3834C144.784 17.0344 146.808 16.8598 148.833 16.8598C152.184 16.8598 154.837 17.5231 156.791 18.8495C158.746 20.1062 159.724 22.2005 159.724 25.1327C159.724 26.1101 159.584 27.0875 159.305 28.0649C159.026 28.9724 158.676 29.8102 158.258 30.5781C156.791 30.5781 155.291 30.6479 153.755 30.7876C152.219 30.9272 150.718 31.1366 149.252 31.4159C147.786 31.6951 146.389 32.0093 145.063 32.3584C143.806 32.6376 142.724 32.9867 141.817 33.4056V69.115C141.118 69.3245 140.001 69.5339 138.466 69.7433C136.999 69.9528 135.464 70.0575 133.858 70.0575C132.322 70.0575 130.926 69.9528 129.669 69.7433C128.482 69.5339 127.47 69.115 126.632 68.4867C125.794 67.8584 125.131 67.0206 124.643 65.9734C124.224 64.8564 124.014 63.4252 124.014 61.6799L124.014 61.0695Z" fill="#E8FF8E"/>
<path fill-rule="evenodd" clip-rule="evenodd" d="M157.299 38.1073C157.034 39.8765 156.901 41.765 156.901 43.7729C156.901 47.9617 157.53 51.7316 158.786 55.0826C160.113 58.3638 161.998 61.1913 164.441 63.5649C166.955 65.9386 169.991 67.7537 173.552 69.0103C177.182 70.267 181.266 70.8953 185.804 70.8953C189.993 70.8953 193.693 70.3717 196.904 69.3245C200.116 68.3471 202.734 67.1952 204.758 65.8687C207.83 63.914 209.366 61.296 209.366 58.0148V8.37758C209.366 6.63225 209.157 5.23599 208.738 4.18879C208.319 3.07178 207.691 2.19911 206.853 1.5708C206.015 0.942476 204.968 0.523596 203.711 0.314155C202.524 0.104718 201.163 0 199.627 0C198.021 0 196.451 0.139627 194.915 0.41888C193.379 0.628317 192.262 0.837756 191.564 1.0472V18.0118C190.726 17.6627 189.644 17.3835 188.317 17.174C186.991 16.8948 185.63 16.7552 184.233 16.7552C180.394 16.7552 176.798 17.3137 173.447 18.4307C171.067 19.1904 168.888 20.2624 166.912 21.6467C167.138 22.7974 167.241 23.9694 167.241 25.1327C167.241 26.8361 166.996 28.508 166.533 30.13L166.512 30.203L166.49 30.2756C166.075 31.624 165.537 32.9319 164.857 34.1779L162.72 38.0956H158.258C157.941 38.0956 157.622 38.0995 157.299 38.1073ZM177.95 33.9292C179.975 31.765 182.872 30.6829 186.642 30.6829C188.597 30.6829 190.272 31.1018 191.668 31.9395V54.9779C191.11 55.4666 190.307 55.9204 189.26 56.3392C188.282 56.6883 187.165 56.8628 185.909 56.8628C182.348 56.8628 179.626 55.7807 177.741 53.6165C175.856 51.3825 174.913 48.1013 174.913 43.7729C174.913 39.3746 175.926 36.0934 177.95 33.9292Z" fill="#E8FF8E"/>
<path d="M216.883 43.968V23.0315C217.583 22.3067 218.366 21.6457 219.232 21.0486C221.256 19.6524 223.665 18.5703 226.458 17.8023C229.32 17.0344 232.461 16.6504 235.882 16.6504C238.465 16.6504 240.874 16.8599 243.108 17.2787C245.412 17.6278 247.402 18.1863 249.077 18.9543C250.753 19.7222 252.079 20.7345 253.056 21.9911C254.034 23.1779 254.522 24.6091 254.522 26.2846C254.522 27.8903 254.208 29.2866 253.58 30.4734C253.021 31.5904 252.288 32.5329 251.381 33.3009C250.822 32.9518 249.985 32.6027 248.868 32.2537C247.751 31.8348 246.529 31.4857 245.202 31.2065C243.876 30.8574 242.515 30.5781 241.118 30.3687C239.792 30.1593 238.57 30.0545 237.453 30.0545C235.149 30.0545 233.369 30.3338 232.112 30.8923C230.856 31.381 230.227 32.1838 230.227 33.3009C230.227 34.0688 230.577 34.6971 231.275 35.1858C231.973 35.6745 233.299 36.1283 235.254 36.5472L238.5 37.2802C245.202 38.8161 249.95 40.9454 252.742 43.6681C255.605 46.321 257.036 49.7768 257.036 54.0354C257.036 59.3412 255.046 63.4951 251.067 66.497C247.087 69.499 241.223 71 233.474 71C230.542 71 227.819 70.7905 225.306 70.3717C222.792 69.9528 220.628 69.3245 218.813 68.4867C217.289 67.6944 216.032 66.7425 215.04 65.631C216.227 63.3909 216.883 60.8387 216.883 58.0147V53.3927C218.868 54.474 221.117 55.4562 223.63 56.3392C226.283 57.177 229.32 57.5958 232.741 57.5958C234.905 57.5958 236.546 57.2817 237.663 56.6534C238.849 56.0251 239.443 55.1873 239.443 54.1401C239.443 53.1627 239.024 52.3948 238.186 51.8363C237.348 51.2778 235.952 50.824 233.997 50.4749L230.856 49.8466C224.782 48.6598 220.244 46.8097 217.242 44.2964C217.12 44.1889 217.001 44.0794 216.883 43.968Z" fill="#E8FF8E"/>
</svg>
