<svg width="158" height="44" viewBox="0 0 158 44" fill="none" xmlns="http://www.w3.org/2000/svg">
<path d="M37.193 10.1396C40.2388 14.0227 41.7459 17.6129 41.7142 20.9102C41.7163 24.181 40.3667 26.8758 37.6654 28.9946C36.0446 30.2659 34.3159 30.9128 32.4792 30.9354C30.7028 30.9652 29.0641 30.6144 27.5631 29.8828C27.8491 30.8038 28.0279 31.7271 28.0995 32.6527C28.171 33.5783 28.0883 34.5158 27.8513 35.4653C27.6143 36.4148 27.1965 37.3424 26.598 38.2482C25.9995 39.1539 25.16 40.0306 24.0795 40.8781C22.6275 42.017 21.0759 42.7159 19.4246 42.9748C17.7998 43.2675 16.1452 43.1745 14.4608 42.6959C12.7764 42.2173 11.1225 41.3602 9.49897 40.1248C7.86817 38.9496 6.33767 37.4503 4.90747 35.627C2.15301 32.1153 0.563534 29.0806 0.139041 26.5229C-0.285453 23.9652 0.262042 22.0905 1.78153 20.8986C2.69322 20.1835 3.64199 19.7938 4.62786 19.7296C5.64749 19.6388 6.59464 19.7686 7.46928 20.1188C7.52626 21.1649 7.72162 22.457 8.05537 23.9951C8.44938 25.5404 9.36148 27.2247 10.7917 29.0481C12.1424 30.7702 13.4395 31.7981 14.683 32.1317C15.9529 32.4992 17.0775 32.2988 18.0567 31.5308C19.0359 30.7627 19.5139 29.8424 19.4907 28.7697C19.494 27.7309 18.86 26.4011 17.5887 24.7803L13.8543 20.0193C14.0403 19.4916 14.3372 18.9314 14.7451 18.3388C15.1529 17.7462 15.7282 17.1586 16.4711 16.5759C17.2477 15.9668 17.9591 15.5178 18.6053 15.2291C19.3118 14.9477 19.9567 14.7964 20.54 14.7752L24.2744 19.5362C26.1813 21.9674 28.0634 22.4547 29.9205 20.998C30.7984 20.3094 31.203 19.3649 31.1341 18.1645C31.0652 16.9641 30.4215 15.5873 29.2032 14.034C28.1173 12.6496 26.995 11.5664 25.8363 10.7845C24.7114 9.97615 23.6477 9.41968 22.6453 9.11515C22.6002 8.2233 22.719 7.36654 23.0017 6.54486C23.3182 5.6967 23.8816 4.95479 24.692 4.31915C26.3803 2.99489 28.3014 2.9061 30.4553 4.05279C32.6429 5.17299 34.8888 7.20193 37.193 10.1396Z" fill="#F44369"/>
<path fill-rule="evenodd" clip-rule="evenodd" d="M40.6167 31.084C40.8166 32.0658 41.092 32.9999 41.4428 33.8863C42.2582 35.9462 43.3954 37.7056 44.8545 39.1647C46.3565 40.5809 48.1374 41.6752 50.1973 42.4477C52.2572 43.2201 54.5531 43.6063 57.0851 43.6063C59.617 43.6063 61.9129 43.2416 63.9728 42.512C66.0327 41.7825 67.7921 40.7096 69.2512 39.2935C70.7532 37.8773 71.9119 36.1393 72.7273 34.0794C73.5426 31.9766 73.9503 29.5949 73.9503 26.9342C73.9503 24.4452 73.5426 22.1707 72.7273 20.1108C71.9119 18.0509 70.7532 16.3129 69.2512 14.8967C67.7921 13.4377 66.0327 12.3219 63.9728 11.5494C61.9129 10.7341 59.617 10.3264 57.0851 10.3264C54.5531 10.3264 52.2572 10.7126 50.1973 11.4851C48.1374 12.2575 46.3565 13.3733 44.8545 14.8324C44.6454 15.0354 44.4428 15.245 44.2469 15.4612C44.8873 17.2696 45.2269 19.0933 45.2117 20.9257C45.2096 24.979 43.6029 28.4238 40.6167 31.084ZM52.9009 32.9851C51.9139 31.5689 51.4204 29.5519 51.4204 26.9342C51.4204 24.3593 51.9139 22.3853 52.9009 21.012C53.8879 19.5959 55.2827 18.8878 57.0851 18.8878C58.8874 18.8878 60.2822 19.5959 61.2692 21.012C62.2562 22.3853 62.7497 24.3593 62.7497 26.9342C62.7497 29.509 62.2562 31.5045 61.2692 32.9207C60.3251 34.3369 58.9518 35.045 57.1494 35.045C55.347 35.045 53.9309 34.3583 52.9009 32.9851Z" fill="black"/>
<path d="M76.2316 37.5395C76.5209 36.9706 76.785 36.3838 77.0239 35.7801L77.0299 35.7651L77.0357 35.75C78.0912 33.028 78.5713 30.0656 78.5713 26.9342C78.5713 23.9344 78.0784 21.0742 77.0239 18.41C76.8353 17.9335 76.631 17.4675 76.411 17.0124C76.494 16.6807 76.6059 16.3741 76.7465 16.0928C77.1328 15.3632 77.6692 14.7195 78.3558 14.1616C79.0424 13.6038 79.8793 13.1102 80.8663 12.6811C81.8962 12.209 82.9906 11.8014 84.1492 11.4581C85.3079 11.1147 86.5095 10.8573 87.754 10.6856C88.9985 10.471 90.2431 10.3637 91.4876 10.3637C93.5474 10.3637 95.1782 10.7714 96.3798 11.5868C97.5814 12.3592 98.1822 13.6467 98.1822 15.4491C98.1822 16.0499 98.0964 16.6507 97.9247 17.2515C97.753 17.8094 97.5385 18.3243 97.281 18.7964C96.3798 18.7964 95.4571 18.8393 94.513 18.9251C93.5689 19.0109 92.6463 19.1397 91.7451 19.3113C90.8439 19.483 89.9856 19.6761 89.1702 19.8907C88.3977 20.0623 87.7326 20.2769 87.1747 20.5344V42.485C86.7455 42.6138 86.0589 42.7425 85.1148 42.8712C84.2136 43 83.2695 43.0644 82.2825 43.0644C81.3384 43.0644 80.4801 43 79.7076 42.8712C78.9781 42.7425 78.3558 42.485 77.8409 42.0988C77.3259 41.7126 76.9182 41.1976 76.6178 40.5539C76.3603 39.8673 76.2316 38.9875 76.2316 37.9147L76.2316 37.5395Z" fill="black"/>
<path fill-rule="evenodd" clip-rule="evenodd" d="M96.6919 23.4246C96.5289 24.5121 96.4474 25.673 96.4474 26.9072C96.4474 29.4821 96.8336 31.7994 97.6061 33.8593C98.4214 35.8763 99.5801 37.6143 101.082 39.0734C102.627 40.5325 104.494 41.6482 106.682 42.4207C108.914 43.1931 111.424 43.5794 114.214 43.5794C116.789 43.5794 119.063 43.2575 121.037 42.6138C123.011 42.013 124.621 41.3049 125.865 40.4895C127.753 39.288 128.697 37.6787 128.697 35.6617V5.1497C128.697 4.07685 128.569 3.21856 128.311 2.57485C128.054 1.88822 127.667 1.3518 127.152 0.965569C126.638 0.579341 125.994 0.321855 125.221 0.193111C124.492 0.0643705 123.655 0 122.711 0C121.724 0 120.758 0.0858286 119.814 0.257486C118.87 0.386227 118.183 0.514969 117.754 0.643712V11.0719C117.239 10.8573 116.574 10.6856 115.759 10.5569C114.943 10.3852 114.107 10.2994 113.248 10.2994C110.888 10.2994 108.678 10.6427 106.618 11.3293C105.155 11.7963 103.816 12.4553 102.601 13.3062C102.74 14.0136 102.803 14.734 102.803 15.4491C102.803 16.4962 102.653 17.5239 102.368 18.5209L102.355 18.5658L102.341 18.6104C102.086 19.4393 101.755 20.2433 101.338 21.0092L100.024 23.4174H97.281C97.0865 23.4174 96.8901 23.4198 96.6919 23.4246ZM109.386 20.8563C110.631 19.526 112.411 18.8608 114.729 18.8608C115.93 18.8608 116.96 19.1183 117.819 19.6332V33.7949C117.475 34.0953 116.982 34.3743 116.338 34.6318C115.737 34.8463 115.051 34.9536 114.278 34.9536C112.09 34.9536 110.416 34.2884 109.257 32.9581C108.099 31.5849 107.519 29.5679 107.519 26.9072C107.519 24.2036 108.142 22.1866 109.386 20.8563Z" fill="black"/>
<path d="M133.318 27.0272V14.1574C133.749 13.7119 134.23 13.3056 134.762 12.9386C136.006 12.0803 137.487 11.4152 139.204 10.9431C140.963 10.471 142.894 10.235 144.997 10.235C146.585 10.235 148.065 10.3638 149.439 10.6212C150.855 10.8358 152.078 11.1791 153.108 11.6512C154.138 12.1232 154.953 12.7455 155.554 13.518C156.155 14.2475 156.455 15.1272 156.455 16.1572C156.455 17.1442 156.262 18.0025 155.876 18.732C155.532 19.4187 155.082 19.998 154.524 20.4701C154.181 20.2555 153.666 20.0409 152.979 19.8263C152.292 19.5689 151.541 19.3543 150.726 19.1826C149.911 18.9681 149.074 18.7964 148.216 18.6677C147.4 18.5389 146.649 18.4745 145.963 18.4745C144.546 18.4745 143.452 18.6462 142.68 18.9895C141.907 19.2899 141.521 19.7834 141.521 20.4701C141.521 20.9421 141.736 21.3283 142.165 21.6287C142.594 21.9291 143.409 22.2081 144.611 22.4656L146.606 22.9162C150.726 23.8603 153.644 25.1692 155.361 26.8428C157.12 28.4736 158 30.5978 158 33.2156C158 36.477 156.777 39.0304 154.331 40.8758C151.885 42.7211 148.28 43.6437 143.516 43.6437C141.714 43.6437 140.04 43.515 138.495 43.2575C136.951 43 135.62 42.6138 134.504 42.0988C133.568 41.6118 132.795 41.0267 132.185 40.3434C132.915 38.9664 133.318 37.3976 133.318 35.6617V32.8205C134.538 33.4852 135.921 34.0889 137.466 34.6317C139.096 35.1467 140.963 35.4042 143.066 35.4042C144.396 35.4042 145.405 35.2111 146.091 34.8249C146.821 34.4386 147.186 33.9237 147.186 33.2799C147.186 32.6791 146.928 32.2071 146.413 31.8638C145.898 31.5205 145.04 31.2415 143.838 31.0269L141.907 30.6407C138.174 29.9112 135.384 28.774 133.539 27.229C133.464 27.1629 133.39 27.0956 133.318 27.0272Z" fill="black"/>
</svg>
